<?xml version="1.0" encoding="UTF-8" standalone="no"?>
<svg
   xmlns:dc="http://purl.org/dc/elements/1.1/"
   xmlns:cc="http://creativecommons.org/ns#"
   xmlns:rdf="http://www.w3.org/1999/02/22-rdf-syntax-ns#"
   xmlns:svg="http://www.w3.org/2000/svg"
   xmlns="http://www.w3.org/2000/svg"
   height="237.64592"
   width="237.64592"
   id="svg8"
   xml:space="preserve"
   viewBox="0 0 237.64592 237.64592"
   y="0px"
   x="0px"
   version="1.1"><metadata
     id="metadata14"><rdf:RDF><cc:Work
         rdf:about=""><dc:format>image/svg+xml</dc:format><dc:type
           rdf:resource="http://purl.org/dc/dcmitype/StillImage" /><dc:title></dc:title></cc:Work></rdf:RDF></metadata><defs
     id="defs12" /><path
     style="stroke-width:5.14187479"
     id="path2"
     d="M 118.82296,10 C 58.817681,10 10,58.817681 10,118.82296 c 0,60.00528 48.817681,108.82296 108.82296,108.82296 60.00528,0 108.82296,-48.81768 108.82296,-108.82296 C 227.64592,58.817681 178.82824,10 118.82296,10 Z m 0,213.78951 c -57.878734,0 -104.966554,-47.08782 -104.966554,-104.96655 0,-57.878734 47.08782,-104.966554 104.966554,-104.966554 57.87873,0 104.96655,47.08782 104.96655,104.966554 0,57.87873 -47.08782,104.96657 -104.96655,104.96655 z m 1.62535,-80.69925 0.0164,0.0537 c 0.0323,-0.01 0.1177,-0.038 0.22882,-0.0784 14.37081,-0.85708 25.83208,-12.70562 25.83208,-27.28545 0,-14.58267 -11.46189,-26.431824 -25.83334,-27.288282 -0.10581,-0.0365 -0.1996,-0.06809 -0.23257,-0.07815 l -0.0164,0.05302 c -0.46324,-0.02326 -0.90072,-0.138415 -1.36959,-0.138415 -15.13438,0 -27.449275,12.314887 -27.449275,27.451777 0,15.13439 12.314895,27.44928 27.449275,27.44928 0.47075,0 0.9095,-0.11548 1.37429,-0.13904 z m 0.55392,-13.85802 v -11.52403 h 10.30102 c -0.37285,4.79196 -1.34824,8.5721 -2.61081,11.52403 z m 5.63868,3.85641 c -2.00541,3.02945 -4.17809,4.70282 -5.63868,5.55865 v -5.55865 z m -5.63868,-19.23684 v -11.52403 h 8.27898 c 1.27229,2.9648 2.12968,6.74934 2.16201,11.52403 z m 0,-15.380433 v -5.60541 c 1.58298,0.856773 4.01396,2.557761 6.15337,5.60541 z m -3.85641,3.856403 v 11.52403 h -9.62187 c 0.0288,-4.77877 0.87215,-8.5633 2.12938,-11.52403 z m -5.38478,-3.856403 c 1.80518,-2.586631 3.82879,-4.197858 5.38478,-5.14972 v 5.14972 z m 5.38478,19.236833 v 11.52403 h -6.86922 c -1.26287,-2.95194 -2.23796,-6.73239 -2.61079,-11.52403 z m 0,15.38044 v 5.03171 c -1.39531,-0.95467 -3.16188,-2.5317 -4.81704,-5.03171 z m 13.96222,0 h 3.87523 c -2.02203,1.85948 -4.32653,3.41108 -6.90154,4.47937 1.04444,-1.22207 2.07381,-2.70871 3.02631,-4.47937 z m 1.73519,-3.85641 c 1.14926,-3.11795 1.98657,-6.93356 2.3183,-11.52403 h 7.31299 c -0.35181,4.25468 -1.74743,8.20648 -4.06323,11.52403 z m 2.44855,-15.38043 c -0.0225,-4.57508 -0.69923,-8.40105 -1.80393,-11.52403 h 4.92439 c 2.31547,3.31787 3.71047,7.26937 4.06229,11.52403 z m -3.54822,-15.380433 c -0.86149,-1.565723 -1.80644,-2.909251 -2.78906,-4.046587 2.22416,1.034087 4.24557,2.404914 6.03034,4.046587 z m -24.51806,0 h -4.06103 c 2.12874,-1.958327 4.59078,-3.538176 7.32743,-4.614004 -1.14959,1.247809 -2.26464,2.793758 -3.2664,4.614004 z m -1.7443,3.856403 c -1.10469,3.12298 -1.78132,6.94895 -1.80392,11.52403 h -8.001228 c 0.351499,-4.25467 1.746181,-8.20616 4.061341,-11.52403 z m -1.67368,15.38043 c 0.3317,4.59047 1.16903,8.40608 2.3183,11.52403 h -6.38749 c -2.315787,-3.31755 -3.710476,-7.26935 -4.06228,-11.52403 z m 4.05349,15.38044 c 1.03723,1.9282 2.16703,3.5385 3.30437,4.82114 -2.99524,-1.07457 -5.70175,-2.70777 -7.99934,-4.82114 z M 61.940968,160.22159 H 103.7413 l 15.18459,34.76791 13.53509,-34.76791 h 43.24398 V 70.452182 H 61.940968 Z M 65.797374,74.308583 H 171.84855 v 82.056597 h -42.02379 l -11.10474,28.52134 -12.45298,-28.52134 H 65.797374 Z" /></svg>
